<?xml version="1.0" encoding="utf-8"?>
<!-- Generator: Adobe Illustrator 26.1.0, SVG Export Plug-In . SVG Version: 6.00 Build 0)  -->
<svg version="1.1" id="Layer_1" xmlns="http://www.w3.org/2000/svg" xmlns:xlink="http://www.w3.org/1999/xlink" x="0px" y="0px"
	 viewBox="0 0 1920 424.67" style="enable-background:new 0 0 1920 424.67;" xml:space="preserve">
<style type="text/css">
	.st0{fill:#0066FF;}
	.st1{font-family:'NexaBold';}
	.st2{font-size:50px;}
</style>
<g>
	<g>
		<g>
			<path class="st0" d="M220.75,202.07c0-25.02,37.91-25.02,37.91,0C258.66,227.08,220.75,227.08,220.75,202.07z"/>
			<path class="st0" d="M223.64,238.12h32.11v102.42c0,8.87-7.19,16.06-16.06,16.06h0c-8.87,0-16.06-7.19-16.06-16.06V238.12z"/>
		</g>
		<g>
			<g>
				<path class="st0" d="M232.65,112.41c-42.9,3.3-77.77,37.32-82.04,80.13c-3.41,34.22,12.59,65.07,38.31,82.82
					c8.08,5.58,19.11-0.12,19.11-9.94v-17.1c0-6.21-2.27-12.14-6.11-17.02c-6.75-8.57-10.64-19.51-10.22-31.34
					c0.85-24.42,20.43-44.63,44.81-46.22c27.91-1.82,51.23,20.38,51.23,47.93c0,11.16-3.83,21.46-10.26,29.62
					c-3.84,4.88-6.11,10.81-6.11,17.02v17.11c0,9.83,11.03,15.52,19.12,9.93c23.4-16.16,38.75-43.16,38.75-73.68
					C329.24,149.97,285.19,108.37,232.65,112.41z"/>
			</g>
		</g>
		<g>
			<path class="st0" d="M182.35,347.36c-3.97,0-7.83-0.9-11.49-2.67c-58.06-28.14-93.09-87.91-89.25-152.27
				c2.33-39.1,19.17-75.84,47.4-103.47C157.25,61.34,194.35,45.3,233.5,43.8c2.09-0.08,4.11-0.12,6.2-0.12
				c87.33,0,158.37,71.05,158.37,158.39c0,60.27-35.14,116.25-89.53,142.61c-3.66,1.77-7.52,2.67-11.49,2.67c0,0,0,0,0,0
				c-14.5,0-26.3-11.8-26.3-26.3v-1.27l1.22-0.34c52.67-14.48,89.46-62.75,89.46-117.37c0-67.13-54.61-121.74-121.73-121.74
				c-1.01,0-2.02,0.01-3.04,0.04c-64.14,1.57-116.24,53.01-118.61,117.12c-2.1,56.76,34.65,106.92,89.37,121.96l1.22,0.34v1.27
				C208.65,335.56,196.85,347.36,182.35,347.36z"/>
		</g>
	</g>
	<g>
		<path class="st0" d="M515.07,127.39c0,24.29-36.83,24.29-36.83,0C478.24,103.09,515.07,103.09,515.07,127.39z M481.05,162.42
			v126.59h31.2V162.42H481.05z"/>
		<path class="st0" d="M583.86,140.68h-56.77V110c51.66,0,95.39,0,147.3,0v30.69h-56.77v148.33h-33.76V140.68z"/>
		<path class="st0" d="M684.62,237.1c2.05,15.6,15.6,26.85,37.59,26.85c11.51,0,26.6-4.35,33.76-11.76l19.95,19.69
			c-13.3,13.81-35.04,20.46-54.22,20.46c-43.47,0-69.3-26.85-69.3-67.26c0-38.36,26.08-65.98,67-65.98c42.2,0,68.54,26.08,63.68,78
			H684.62z M753.16,211.27c-2.05-16.37-14.83-24.55-32.73-24.55c-16.88,0-30.69,8.18-35.29,24.55H753.16z"/>
		<path class="st0" d="M915.29,272.9c-14.58,14.32-29.92,19.95-48.59,19.95c-36.57,0-67-21.99-67-66.75s30.43-66.75,67-66.75
			c17.9,0,31.71,5.12,45.52,18.67l-19.69,20.71c-7.42-6.65-16.62-9.97-25.32-9.97c-20.97,0-36.31,15.34-36.31,37.34
			c0,24.04,16.37,36.83,35.8,36.83c9.97,0,19.95-2.81,27.62-10.48L915.29,272.9z"/>
		<path class="st0" d="M960.3,110v70.07c11.25-14.58,25.06-18.92,39.38-18.92c35.8,0,51.66,24.29,51.66,61.38v66.49h-31.2v-66.23
			c0-23.02-12.02-32.73-28.64-32.73c-18.41,0-31.2,15.6-31.2,34.52v64.44h-31.2V110H960.3z"/>
		<path class="st0" d="M1170.52,289.01v-65.98c0-19.18-10.48-33.76-30.43-33.76c-19.18,0-32.22,16.11-32.22,35.29v64.44h-30.94
			V162.68h27.87l2.05,17.13c12.79-12.53,25.57-18.92,41.43-18.92c29.67,0,53.45,22.25,53.45,61.89v66.23H1170.52z"/>
		<path class="st0" d="M1353.88,226.1c0,36.31-24.81,65.72-65.72,65.72c-40.92,0-65.47-29.41-65.47-65.72
			c0-36.06,25.06-65.72,65.21-65.72S1353.88,190.04,1353.88,226.1z M1253.89,226.1c0,19.18,11.51,37.08,34.27,37.08
			s34.27-17.9,34.27-37.08c0-18.92-13.3-37.34-34.27-37.34C1265.66,188.76,1253.89,207.18,1253.89,226.1z"/>
		<path class="st0" d="M1457.71,196.43c-8.95-8.44-19.18-11.25-31.2-11.25c-14.83,0-23.02,4.6-23.02,12.53
			c0,8.18,7.42,12.79,23.53,13.81c23.78,1.53,53.96,6.91,53.96,40.41c0,22.25-18.16,41.43-54.22,41.43
			c-19.95,0-39.89-3.32-58.31-22.5l15.34-22.25c8.95,9.97,29.41,17.39,43.47,17.65c11.76,0.26,22.76-5.88,22.76-15.09
			c0-8.69-7.16-12.28-25.06-13.3c-23.78-1.79-52.17-10.48-52.17-39.13c0-29.15,30.18-39.38,53.19-39.38
			c19.69,0,34.52,3.84,49.1,16.62L1457.71,196.43z"/>
		<path class="st0" d="M1626.24,226.1c0,36.31-24.81,65.72-65.72,65.72c-40.92,0-65.47-29.41-65.47-65.72
			c0-36.06,25.06-65.72,65.21-65.72S1626.24,190.04,1626.24,226.1z M1526.25,226.1c0,19.18,11.51,37.08,34.27,37.08
			s34.27-17.9,34.27-37.08c0-18.92-13.3-37.34-34.27-37.34C1538.01,188.76,1526.25,207.18,1526.25,226.1z"/>
		<path class="st0" d="M1657.96,289.01v-96.92h-23.53v-27.36h23.53v-8.44c0-33.76,22.76-49.36,48.08-49.36
			c11,0,22.5,3.58,32.73,10.23l-11.51,23.27c-6.65-4.35-12.79-6.65-19.18-6.65c-10.74,0-18.93,7.16-18.93,22.51v8.44h37.08v27.36
			h-37.08v96.92H1657.96z"/>
		<path class="st0" d="M1794.78,127.39v35.8h34.78v26.85h-35.04v54.47c0,12.02,6.65,17.9,16.37,17.9c4.86,0,10.49-1.53,15.09-3.84
			l8.69,26.6c-8.95,3.58-16.37,5.11-25.83,5.37c-27.36,1.02-45.27-14.58-45.27-46.03v-54.47h-23.53v-26.85h23.53v-32.48
			L1794.78,127.39z"/>
	</g>
	<text transform="matrix(1 0 0 1 1662.4236 365.582)" class="st0 st1 st2">pvt. ltd.</text>
</g>
</svg>
